<?xml version="1.0" encoding="utf-8"?>
<!-- Generator: Adobe Illustrator 24.1.2, SVG Export Plug-In . SVG Version: 6.00 Build 0)  -->
<svg version="1.1" id="Layer_1" xmlns="http://www.w3.org/2000/svg" xmlns:xlink="http://www.w3.org/1999/xlink" x="0px" y="0px"
	 viewBox="0 0 436.32 73.39" style="enable-background:new 0 0 436.32 73.39;" xml:space="preserve">
<style type="text/css">
	.st0{fill:none;stroke:#000111;stroke-width:3.5;stroke-linejoin:round;stroke-miterlimit:10;}
</style>
<g>
	<path class="st0" d="M40.86,3.5l8.52,18.99c0.44,0.99,1.39,1.65,2.47,1.74l19.99,1.59c2.6,0.21,3.68,3.43,1.74,5.16L58.7,44.25
		c-0.88,0.78-1.21,2.02-0.84,3.14l6.7,20.36c0.83,2.53-1.83,4.78-4.19,3.55L39.53,60.41c-0.86-0.45-1.88-0.45-2.74,0L15.95,71.29
		c-2.36,1.23-5.02-1.03-4.19-3.55l6.7-20.36c0.37-1.12,0.04-2.35-0.84-3.14L2.74,30.98c-1.94-1.74-0.86-4.96,1.74-5.16l19.99-1.59
		c1.08-0.09,2.02-0.75,2.47-1.74L35.46,3.5C36.5,1.17,39.81,1.17,40.86,3.5z"/>
	<path class="st0" d="M400.86,3.5l8.52,18.99c0.44,0.99,1.39,1.65,2.47,1.74l19.99,1.59c2.6,0.21,3.68,3.43,1.74,5.16L418.7,44.25
		c-0.88,0.78-1.21,2.02-0.84,3.14l6.7,20.36c0.83,2.53-1.83,4.78-4.19,3.55l-20.84-10.89c-0.86-0.45-1.88-0.45-2.74,0l-20.84,10.89
		c-2.36,1.23-5.02-1.03-4.19-3.55l6.7-20.36c0.37-1.12,0.04-2.35-0.84-3.14l-14.87-13.28c-1.94-1.74-0.86-4.96,1.74-5.16l19.99-1.59
		c1.08-0.09,2.02-0.75,2.47-1.74l8.52-18.99C396.5,1.17,399.81,1.17,400.86,3.5z"/>
	<path class="st0" d="M130.86,3.5l8.52,18.99c0.44,0.99,1.39,1.65,2.47,1.74l19.99,1.59c2.6,0.21,3.68,3.43,1.74,5.16L148.7,44.25
		c-0.88,0.78-1.21,2.02-0.84,3.14l6.7,20.36c0.83,2.53-1.83,4.78-4.19,3.55l-20.84-10.89c-0.86-0.45-1.88-0.45-2.74,0l-20.84,10.89
		c-2.36,1.23-5.02-1.03-4.19-3.55l6.7-20.36c0.37-1.12,0.04-2.35-0.84-3.14L92.74,30.98c-1.94-1.74-0.86-4.96,1.74-5.16l19.99-1.59
		c1.08-0.09,2.02-0.75,2.47-1.74l8.52-18.99C126.5,1.17,129.81,1.17,130.86,3.5z"/>
	<path class="st0" d="M310.86,3.5l8.52,18.99c0.44,0.99,1.39,1.65,2.47,1.74l19.99,1.59c2.6,0.21,3.68,3.43,1.74,5.16L328.7,44.25
		c-0.88,0.78-1.21,2.02-0.84,3.14l6.7,20.36c0.83,2.53-1.83,4.78-4.19,3.55l-20.84-10.89c-0.86-0.45-1.88-0.45-2.74,0l-20.84,10.89
		c-2.36,1.23-5.02-1.03-4.19-3.55l6.7-20.36c0.37-1.12,0.04-2.35-0.84-3.14l-14.87-13.28c-1.94-1.74-0.86-4.96,1.74-5.16l19.99-1.59
		c1.08-0.09,2.02-0.75,2.47-1.74l8.52-18.99C306.5,1.17,309.81,1.17,310.86,3.5z"/>
	<path class="st0" d="M220.86,3.5l8.52,18.99c0.44,0.99,1.39,1.65,2.47,1.74l19.99,1.59c2.6,0.21,3.68,3.43,1.74,5.16L238.7,44.25
		c-0.88,0.78-1.21,2.02-0.84,3.14l6.7,20.36c0.83,2.53-1.83,4.78-4.19,3.55l-20.84-10.89c-0.86-0.45-1.88-0.45-2.74,0l-20.84,10.89
		c-2.36,1.23-5.02-1.03-4.19-3.55l6.7-20.36c0.37-1.12,0.04-2.35-0.84-3.14l-14.87-13.28c-1.94-1.74-0.86-4.96,1.74-5.16l19.99-1.59
		c1.08-0.09,2.02-0.75,2.47-1.74l8.52-18.99C216.5,1.17,219.81,1.17,220.86,3.5z"/>
</g>
</svg>
