<?xml version="1.0" encoding="utf-8"?>
<svg id="master-artboard" viewBox="0 0 1400 980" version="1.1" xmlns="http://www.w3.org/2000/svg" x="0px" y="0px" style="enable-background:new 0 0 336 235.2;" width="1400px" height="980px" xmlns:xlink="http://www.w3.org/1999/xlink"><linearGradient id="lg1"><stop offset=".322" stop-color="#a163f5"/><stop offset=".466" stop-color="#b074ee"/><stop offset=".752" stop-color="#d8a1dd"/><stop offset=".898" stop-color="#efbad3"/></linearGradient><linearGradient id="linear0" gradientUnits="userSpaceOnUse" x1="186.466029" x2="186.466029" y1="479.388144" y2="23.318144" xlink:href="#lg1"/><linearGradient id="linear1" gradientUnits="userSpaceOnUse" x1="117.864029" x2="117.864029" y1="479.388144" y2="23.318144" xlink:href="#lg1"/><linearGradient id="linear2" gradientUnits="userSpaceOnUse" x1="117.863029" x2="117.863029" y1="479.388144" y2="23.318144" xlink:href="#lg1"/><path d="m368.445312 9.746094-.285156-.101563c-.21875-.078125-.441406-.140625-.667968-.191406l-41.46875-9.308594c-1.542969-.34375-3.160157-.0703122-4.5.773438l-125.140626 78.441406c-28.957031-27.910156-72.332031-34.605469-108.359374-16.726563-36.023438 17.882813-56.921876 56.476563-52.203126 96.417969 4.722657 39.941407 34.039063 72.601563 73.238282 81.59375.933594.21875 1.867187.417969 2.800781.601563v54.824218l-108.925781 79.304688c-1.769532 1.246094-2.734375 3.351562-2.515625 5.507812.214843 2.15625 1.578125 4.027344 3.5625 4.894532 1.988281.871094 4.285156.601562 6.015625-.703125l23.101562-16.816407v120.515626c0 3.3125 2.6875 6 6 6h157.535156c3.3125 0 6-2.6875 6-6v-120.511719l23.101563 16.8125c1.730469 1.304687 4.027344 1.574219 6.015625.707031 1.984375-.871094 3.347656-2.742188 3.5625-4.898438.21875-2.15625-.746094-4.261718-2.515625-5.507812l-30.160156-21.957031v-35.398438c0-3.316406-2.6875-6-6-6s-6 2.683594-6 6v26.664063l-66.769531-48.613282v-53.222656c2.21875.15625 4.441406.242188 6.65625.242188 29.425781-.078125 57.164062-13.757813 75.140624-37.054688 17.976563-23.296875 24.175782-53.59375 16.789063-82.082031l38.464844-24.109375 24.035156 1.917969c2.296875.183593 4.496094-.964844 5.65625-2.957031l12.117187-20.734376 19.945313.039063h.011719c2.113281 0 4.070312-1.113281 5.152344-2.925781l12.191406-20.425782 18.898437.578126c2.886719.070312 5.421875-1.910157 6.046875-4.726563l7.355469-33.929687c.644531-2.960938-1.023437-5.9375-3.882813-6.933594zm-177.8125 473.027344h-145.539062v-123.25l72.773438-52.980469 72.769531 52.980469zm-16.125-264.417969c-36.957031 23.171875-85.539062 13.851562-111.300781-21.351563-25.757812-35.203125-19.941406-84.328125 13.328125-112.542968 33.269532-28.214844 82.683594-25.929688 113.207032 5.234374.109374.234376.230468.460938.363281.679688.546875.871094 1.308593 1.589844 2.214843 2.082031 16.367188 18.257813 23.832032 42.8125 20.398438 67.09375-3.4375 24.28125-17.421875 45.800781-38.210938 58.804688zm179.796876-175.167969-17.4375-.53125c-2.175782-.058594-4.214844 1.058594-5.335938 2.921875l-12.253906 20.523437-19.980469-.039062c-2.132813.019531-4.101563 1.144531-5.195313 2.976562l-11.953124 20.460938-22.261719-1.777344c-1.285157-.101562-2.570313.214844-3.660157.902344l-37.648437 23.597656c-3.476563-8.585937-8.1875-16.617187-13.980469-23.847656l121.207032-75.976562 33.542968 7.527343zm0 0" fill="url(#linear0)" transform="matrix(1.9807018041610718, 0, 0, 1.9807018041610718, 331.58941650390625, 0)" style="fill: rgb(153, 150, 203);"/><path d="m126.617188 117.535156c-21.078126-4.835937-42.085938 8.332032-46.921876 29.414063-4.835937 21.082031 8.332032 42.089843 29.414063 46.925781 2.894531.664062 5.859375 1.003906 8.828125 1.003906 19.914062-.039062 36.625-15.011718 38.847656-34.800781 2.21875-19.785156-10.757812-38.089844-30.167968-42.542969zm17.71875 44.242188c-2.746094 11.980468-13.199219 20.625-25.484376 21.070312-12.285156.445313-23.339843-7.414062-26.949218-19.164062-3.613282-11.75 1.117187-24.464844 11.535156-30.992188 4.304688-2.714844 9.285156-4.152344 14.371094-4.15625 2.0625 0 4.117187.234375 6.125.699219 14.621094 3.355469 23.753906 17.925781 20.402344 32.546875zm0 0" fill="url(#linear1)" transform="matrix(1.9807018041610718, 0, 0, 1.9807018041610718, 331.58941650390625, 0)" style="fill: rgb(153, 150, 203);"/><path d="m111.867188 362.5v9.449219c-11.125 3.007812-18.304688 13.789062-16.789063 25.214843 1.519531 11.425782 11.261719 19.957032 22.789063 19.957032 6.03125.011718 10.921874 4.890625 10.957031 10.921875.03125 6.03125-4.804688 10.960937-10.835938 11.039062-.042969 0-.082031-.003906-.121093-.003906-.042969 0-.082032 0-.121094.003906-6.015625-.070312-10.855469-4.960937-10.863282-10.976562 0-3.316407-2.6875-6-6-6-3.316406 0-6 2.683593-6 6 .015626 10.375 6.96875 19.460937 16.984376 22.183593v4.898438c0 3.3125 2.683593 6 6 6 3.3125 0 6-2.6875 6-6v-4.898438c11.125-3.007812 18.304687-13.789062 16.785156-25.214843-1.515625-11.425781-11.261719-19.957031-22.785156-19.957031-6.066407 0-10.984376-4.917969-10.984376-10.984376 0-6.066406 4.917969-10.984374 10.984376-10.984374 6.066406 0 10.984374 4.917968 10.984374 10.984374 0 3.3125 2.6875 6 6 6s6-2.6875 6-6c-.015624-10.375-6.972656-19.460937-16.984374-22.183593v-9.449219c0-3.3125-2.6875-6-6-6-3.316407 0-6 2.6875-6 6zm0 0" fill="url(#linear2)" transform="matrix(1.9807018041610718, 0, 0, 1.9807018041610718, 331.58941650390625, 0)" style="fill: rgb(153, 150, 203);"/></svg>