<?xml version="1.0" encoding="utf-8"?>
<svg id="master-artboard" viewBox="0 0 1400 980" version="1.1" xmlns="http://www.w3.org/2000/svg" x="0px" y="0px" style="enable-background:new 0 0 1400 980;" width="1400px" height="980px"><g transform="matrix(15.312499046325684, 0, 0, 15.312499046325684, 209.9999663241499, -0.000003158271965730819)"><g id="Approve"><path d="M60.92,31.079A2.99,2.99,0,0,0,58,30.324V5a3,3,0,0,0-3-3H15a3,3,0,0,0-3,3V23H8a1.012,1.012,0,0,0-.372.071l-5,2A1,1,0,0,0,2,26V40a1,1,0,0,0,.447.833l3.01,2A1,1,0,0,0,6.01,43H12V59a3,3,0,0,0,3,3H55a3,3,0,0,0,3-3V38.243l2.921-2.921A3,3,0,0,0,60.92,31.079ZM14,5a1,1,0,0,1,1-1H55a1,1,0,0,1,1,1V31.757l-2,2V7a1,1,0,0,0-1-1H17a1,1,0,0,0-1,1V23H14ZM38.293,53.707A1,1,0,0,0,39,54a1.011,1.011,0,0,0,.447-.1L45.1,51.066a.981.981,0,0,0,.26-.188L52,44.243V56H18V31h2a1,1,0,0,0,1,1H49a1,1,0,0,0,1-1V19a1,1,0,0,0-1-1H42V16h1a1,1,0,0,0,1-1V11a1,1,0,0,0-1-1H27a1,1,0,0,0-1,1v4a1,1,0,0,0,1,1h1v2H21a1,1,0,0,0-1,1v4H18V8H52V35.757L41.122,46.636a.981.981,0,0,0-.188.26L38.1,52.553A1,1,0,0,0,38.293,53.707ZM40,30H38V25a1,1,0,0,0-1-1H33a1,1,0,0,0-1,1v5H30V20H40Zm-4,0H34V26h2Zm6-6h2v2H42Zm0,4h2v2H42Zm4,0h2v2H46Zm2-2H46V24h2Zm0-4H46V20h2Zm-4,0H42V20h2ZM28,14V12H42v2Zm12,2v2H30V16ZM28,22H26V20h2Zm-4,0H22V20h2Zm-1.382,2H28v2H25v2h3v2H22.618a3.947,3.947,0,0,0,0-6ZM6.312,41,4,39.464V26.677L8.192,25H20a2,2,0,0,1,0,4H11a1,1,0,0,0-1,1,3,3,0,0,1-3,3v2a5.008,5.008,0,0,0,4.9-4H12V41ZM56,59a1,1,0,0,1-1,1H15a1,1,0,0,1-1-1V31h2V57a1,1,0,0,0,1,1H53a1,1,0,0,0,1-1V42.243l2-2Zm3.506-25.092L44.064,49.35l-2.828,1.414,1.414-2.828L58.092,32.494a1,1,0,0,1,1.414,1.414Z" style="fill: rgb(216, 166, 203);"/><path d="M36,44H22a1,1,0,0,0-1,1v8a1,1,0,0,0,1,1H36a1,1,0,0,0,1-1V45A1,1,0,0,0,36,44Zm-1,8H23V46H35Z" style="fill: rgb(216, 166, 203);"/><path d="M27.664,50.96a1,1,0,0,0,.584-.189l2.084-1.5,2.084,1.5,1.168-1.623-2.668-1.919a1,1,0,0,0-1.168,0l-2.084,1.5-2.079-1.5-1.17,1.622,2.664,1.92A1,1,0,0,0,27.664,50.96Z" style="fill: rgb(216, 166, 203);"/><path d="M 22 34 H 26 V 36 H 22 V 34 Z" style="fill: rgb(216, 166, 203);"/><path d="M 28 34 H 48 V 36 H 28 V 34 Z" style="fill: rgb(216, 166, 203);"/><path d="M 22 40 H 44 V 42 H 22 V 40 Z" style="fill: rgb(216, 166, 203);"/></g></g></svg>