<?xml version="1.0" encoding="utf-8"?>
<svg id="master-artboard" viewBox="0 0 1400 980" version="1.1" xmlns="http://www.w3.org/2000/svg" x="0px" y="0px" style="enable-background:new 0 0 1400 980;" width="1400px" height="980px"><g><g transform="matrix(2.0416667461395264, 0, 0, 2.0416667461395264, 209.99999999999994, 4.263256414560601e-14)"><g>
	<g>
		<g>
			<path d="M160,112h32c4.418,0,8-3.582,8-8V72c0-4.418-3.582-8-8-8h-32c-4.418,0-8,3.582-8,8v32C152,108.418,155.582,112,160,112z&#10;&#9;&#9;&#9;&#9; M168,80h16v16h-16V80z" style="fill: rgb(216, 166, 203);"/>
			<path d="M224,112h32c4.418,0,8-3.582,8-8V72c0-4.418-3.582-8-8-8h-32c-4.418,0-8,3.582-8,8v32C216,108.418,219.582,112,224,112z&#10;&#9;&#9;&#9;&#9; M232,80h16v16h-16V80z" style="fill: rgb(216, 166, 203);"/>
			<path d="M288,112h32c4.418,0,8-3.582,8-8V72c0-4.418-3.582-8-8-8h-32c-4.418,0-8,3.582-8,8v32C280,108.418,283.582,112,288,112z&#10;&#9;&#9;&#9;&#9; M296,80h16v16h-16V80z" style="fill: rgb(216, 166, 203);"/>
			<path d="M160,176h32c4.418,0,8-3.582,8-8v-32c0-4.418-3.582-8-8-8h-32c-4.418,0-8,3.582-8,8v32C152,172.418,155.582,176,160,176z&#10;&#9;&#9;&#9;&#9; M168,144h16v16h-16V144z" style="fill: rgb(216, 166, 203);"/>
			<path d="M224,176h32c4.418,0,8-3.582,8-8v-32c0-4.418-3.582-8-8-8h-32c-4.418,0-8,3.582-8,8v32C216,172.418,219.582,176,224,176z&#10;&#9;&#9;&#9;&#9; M232,144h16v16h-16V144z" style="fill: rgb(216, 166, 203);"/>
			<path d="M288,176h32c4.418,0,8-3.582,8-8v-32c0-4.418-3.582-8-8-8h-32c-4.418,0-8,3.582-8,8v32C280,172.418,283.582,176,288,176z&#10;&#9;&#9;&#9;&#9; M296,144h16v16h-16V144z" style="fill: rgb(216, 166, 203);"/>
			<path d="M160,240h32c4.418,0,8-3.582,8-8v-32c0-4.418-3.582-8-8-8h-32c-4.418,0-8,3.582-8,8v32C152,236.418,155.582,240,160,240z&#10;&#9;&#9;&#9;&#9; M168,208h16v16h-16V208z" style="fill: rgb(216, 166, 203);"/>
			<path d="M224,240h32c4.418,0,8-3.582,8-8v-32c0-4.418-3.582-8-8-8h-32c-4.418,0-8,3.582-8,8v32C216,236.418,219.582,240,224,240z&#10;&#9;&#9;&#9;&#9; M232,208h16v16h-16V208z" style="fill: rgb(216, 166, 203);"/>
			<path d="M288,240h32c4.418,0,8-3.582,8-8v-32c0-4.418-3.582-8-8-8h-32c-4.418,0-8,3.582-8,8v32C280,236.418,283.582,240,288,240z&#10;&#9;&#9;&#9;&#9; M296,208h16v16h-16V208z" style="fill: rgb(216, 166, 203);"/>
			<path d="M160,304h32c4.418,0,8-3.582,8-8v-32c0-4.418-3.582-8-8-8h-32c-4.418,0-8,3.582-8,8v32C152,300.418,155.582,304,160,304z&#10;&#9;&#9;&#9;&#9; M168,272h16v16h-16V272z" style="fill: rgb(216, 166, 203);"/>
			<path d="M224,304h32c4.418,0,8-3.582,8-8v-32c0-4.418-3.582-8-8-8h-32c-4.418,0-8,3.582-8,8v32C216,300.418,219.582,304,224,304z&#10;&#9;&#9;&#9;&#9; M232,272h16v16h-16V272z" style="fill: rgb(216, 166, 203);"/>
			<path d="M288,304h32c4.418,0,8-3.582,8-8v-32c0-4.418-3.582-8-8-8h-32c-4.418,0-8,3.582-8,8v32C280,300.418,283.582,304,288,304z&#10;&#9;&#9;&#9;&#9; M296,272h16v16h-16V272z" style="fill: rgb(216, 166, 203);"/>
			<path d="M160,368h32c4.418,0,8-3.582,8-8v-32c0-4.418-3.582-8-8-8h-32c-4.418,0-8,3.582-8,8v32C152,364.418,155.582,368,160,368z&#10;&#9;&#9;&#9;&#9; M168,336h16v16h-16V336z" style="fill: rgb(216, 166, 203);"/>
			<path d="M224,368h32c4.418,0,8-3.582,8-8v-32c0-4.418-3.582-8-8-8h-32c-4.418,0-8,3.582-8,8v32C216,364.418,219.582,368,224,368z&#10;&#9;&#9;&#9;&#9; M232,336h16v16h-16V336z" style="fill: rgb(216, 166, 203);"/>
			<path d="M288,368h32c4.418,0,8-3.582,8-8v-32c0-4.418-3.582-8-8-8h-32c-4.418,0-8,3.582-8,8v32C280,364.418,283.582,368,288,368z&#10;&#9;&#9;&#9;&#9; M296,336h16v16h-16V336z" style="fill: rgb(216, 166, 203);"/>
			<path d="M360,464V48h8c4.418,0,8-3.582,8-8V8c0-4.418-3.582-8-8-8H112c-4.418,0-8,3.582-8,8v32c0,4.418,3.582,8,8,8h8v416H48v16&#10;&#9;&#9;&#9;&#9;h384v-16H360z M120,16h240v16H120V16z M232,464h-32v-64h32V464z M280,464h-32v-64h32V464z M344,464h-48v-72c0-4.418-3.582-8-8-8&#10;&#9;&#9;&#9;&#9;h-96c-4.418,0-8,3.582-8,8v72h-48V48h208V464z" style="fill: rgb(216, 166, 203);"/>
		</g>
	</g>
</g><g>
</g><g>
</g><g>
</g><g>
</g><g>
</g><g>
</g><g>
</g><g>
</g><g>
</g><g>
</g><g>
</g><g>
</g><g>
</g><g>
</g><g>
</g></g></g></svg>