<?xml version="1.0" encoding="utf-8"?>
<svg id="master-artboard" viewBox="0 0 1400 980" version="1.1" xmlns="http://www.w3.org/2000/svg" x="0px" y="0px" style="enable-background:new 0 0 1400 980;" width="1400px" height="980px"><g transform="matrix(2.1879539963740586, 0, 0, 2.1879539963740586, 209.99996632414997, -0.0000031582719088874)"><g>
	<path d="M419.486,141.249h-77.76V41.625c0-5.523-4.478-10-10-10h-59.471c-0.362-8.171-3.736-15.836-9.586-21.687&#10;&#9;&#9;c-6.117-6.118-14.217-9.536-22.806-9.625c-5.623-0.078-11.011,1.309-15.767,3.937c-12.358-7.012-28.265-5.357-38.653,5.033&#10;&#9;&#9;c-5.959,5.959-9.24,13.876-9.289,22.342h-59.973c-5.523,0-10,4.477-10,10v99.625H28.421c-5.523,0-10,4.477-10,10v286.658&#10;&#9;&#9;c0,5.523,4.477,10,10,10h391.064c5.522,0,10-4.477,10-10V151.249C429.486,145.726,425.008,141.249,419.486,141.249z&#10;&#9;&#9; M199.585,23.426c2.222-2.222,5.199-3.441,8.397-3.441c0.043,0,0.087,0,0.131,0c3.326,0.035,6.477,1.373,8.872,3.769&#10;&#9;&#9;c1.875,1.875,4.419,2.929,7.071,2.929c2.652,0,5.196-1.054,7.071-2.929c2.252-2.251,5.292-3.454,8.527-3.44&#10;&#9;&#9;c3.326,0.035,6.477,1.373,8.871,3.768c2.396,2.395,3.733,5.545,3.769,8.871c0.033,3.247-1.188,6.275-3.441,8.528L224.71,65.623&#10;&#9;&#9;l-24.798-24.798c-2.396-2.395-3.733-5.545-3.768-8.871C196.111,28.706,197.333,25.678,199.585,23.426z M38.421,161.249h67.759&#10;&#9;&#9;v22.923H65.165c-5.523,0-10,4.477-10,10s4.477,10,10,10h41.015v29.324H65.165c-5.523,0-10,4.477-10,10s4.477,10,10,10h41.015&#10;&#9;&#9;v29.324H65.165c-5.523,0-10,4.477-10,10s4.477,10,10,10h41.015v29.335H65.165c-5.523,0-10,4.477-10,10s4.477,10,10,10h41.015&#10;&#9;&#9;v29.324H65.165c-5.523,0-10,4.477-10,10s4.477,10,10,10h41.015v26.428H38.421V161.249z M232.209,427.907h-24.681v-49.918h24.681&#10;&#9;&#9;V427.907z M252.209,427.907v-59.918c0-5.523-4.478-10-10-10h-44.681c-5.523,0-10,4.477-10,10v59.918h-61.348V51.625h56.671&#10;&#9;&#9;c0.892,1.167,1.862,2.286,2.919,3.343l31.869,31.869c1.875,1.875,4.418,2.929,7.071,2.929s5.195-1.054,7.071-2.929l31.214-31.214&#10;&#9;&#9;c1.249-1.249,2.374-2.589,3.384-3.997h55.347v376.282H252.209z M409.486,427.907h-67.76v-26.428h41.016c5.522,0,10-4.477,10-10&#10;&#9;&#9;s-4.478-10-10-10h-41.016v-29.324h41.016c5.522,0,10-4.477,10-10s-4.478-10-10-10h-41.016v-29.335h41.016c5.522,0,10-4.477,10-10&#10;&#9;&#9;s-4.478-10-10-10h-41.016v-29.324h41.016c5.522,0,10-4.477,10-10s-4.478-10-10-10h-41.016v-29.324h41.016c5.522,0,10-4.477,10-10&#10;&#9;&#9;s-4.478-10-10-10h-41.016v-22.923h67.76V427.907z" style="fill: rgb(216, 166, 203);"/>
	<path d="M296.081,114.532h-144.25c-5.523,0-10,4.477-10,10s4.477,10,10,10h144.25c5.522,0,10-4.477,10-10&#10;&#9;&#9;S301.604,114.532,296.081,114.532z" style="fill: rgb(216, 166, 203);"/>
	<path d="M296.081,163.859h-144.25c-5.523,0-10,4.477-10,10s4.477,10,10,10h144.25c5.522,0,10-4.477,10-10&#10;&#9;&#9;S301.604,163.859,296.081,163.859z" style="fill: rgb(216, 166, 203);"/>
	<path d="M296.081,213.186h-144.25c-5.523,0-10,4.477-10,10s4.477,10,10,10h144.25c5.522,0,10-4.477,10-10&#10;&#9;&#9;S301.604,213.186,296.081,213.186z" style="fill: rgb(216, 166, 203);"/>
	<path d="M296.081,262.513h-144.25c-5.523,0-10,4.477-10,10s4.477,10,10,10h144.25c5.522,0,10-4.477,10-10&#10;&#9;&#9;S301.604,262.513,296.081,262.513z" style="fill: rgb(216, 166, 203);"/>
	<path d="M296.081,311.84h-144.25c-5.523,0-10,4.477-10,10s4.477,10,10,10h144.25c5.522,0,10-4.477,10-10&#10;&#9;&#9;S301.604,311.84,296.081,311.84z" style="fill: rgb(216, 166, 203);"/>
</g><g>
</g><g>
</g><g>
</g><g>
</g><g>
</g><g>
</g><g>
</g><g>
</g><g>
</g><g>
</g><g>
</g><g>
</g><g>
</g><g>
</g><g>
</g></g></svg>