<?xml version="1.0" encoding="utf-8"?>
<svg id="master-artboard" xmlns="http://www.w3.org/2000/svg" viewBox="0 0 500 500" width="500px" height="500px"><g><g transform="matrix(1, 0, 0, 1, 2.842170943040401e-14, 7.105427357601002e-15)"><g transform="matrix(1.155508279800415, 0, 0, 1.155508279800415, 0.000003850349457934499, 209.41853332519534)"><g>
	<path class="st0" d="M40.23,4.25l7.04,15.69c0.63,1.41,1.99,2.37,3.53,2.49l16.25,1.29c3.72,0.3,5.27,4.91,2.49,7.39L57.52,41.85&#10;&#9;&#9;c-1.26,1.12-1.73,2.89-1.2,4.49l5.45,16.57c1.19,3.62-2.62,6.85-5.99,5.08l-17.45-9.12c-1.23-0.64-2.7-0.64-3.93,0l-17.45,9.12&#10;&#9;&#9;c-3.37,1.76-7.18-1.47-5.99-5.08l5.45-16.57c0.53-1.6,0.05-3.37-1.2-4.49L3.17,31.13c-2.78-2.49-1.23-7.1,2.49-7.39l16.25-1.29&#10;&#9;&#9;c1.54-0.12,2.9-1.08,3.53-2.49l7.04-15.69C33.99,0.92,38.73,0.92,40.23,4.25z" style="fill: none; stroke: rgb(216, 166, 203); stroke-width: 3.5; stroke-linejoin: round; stroke-miterlimit: 10;"/>
	<path class="st0" d="M400.23,4.25l7.04,15.69c0.63,1.41,1.99,2.37,3.53,2.49l16.25,1.29c3.72,0.3,5.27,4.91,2.49,7.39l-12.02,10.72&#10;&#9;&#9;c-1.26,1.12-1.73,2.89-1.2,4.49l5.45,16.57c1.19,3.62-2.62,6.85-5.99,5.08l-17.45-9.12c-1.23-0.64-2.7-0.64-3.93,0l-17.45,9.12&#10;&#9;&#9;c-3.37,1.76-7.18-1.47-5.99-5.08l5.45-16.57c0.53-1.6,0.05-3.37-1.2-4.49l-12.02-10.72c-2.78-2.49-1.23-7.1,2.49-7.39l16.25-1.29&#10;&#9;&#9;c1.54-0.12,2.9-1.08,3.53-2.49l7.04-15.69C393.99,0.92,398.73,0.92,400.23,4.25z" style="fill: none; stroke: rgb(216, 166, 203); stroke-width: 3.5; stroke-linejoin: round; stroke-miterlimit: 10;"/>
	<path class="st0" d="M130.23,4.25l7.04,15.69c0.63,1.41,1.99,2.37,3.53,2.49l16.25,1.29c3.72,0.3,5.27,4.91,2.49,7.39l-12.02,10.72&#10;&#9;&#9;c-1.26,1.12-1.73,2.89-1.2,4.49l5.45,16.57c1.19,3.62-2.62,6.85-5.99,5.08l-17.45-9.12c-1.23-0.64-2.7-0.64-3.93,0l-17.45,9.12&#10;&#9;&#9;c-3.37,1.76-7.18-1.47-5.99-5.08l5.45-16.57c0.53-1.6,0.05-3.37-1.2-4.49L93.17,31.13c-2.78-2.49-1.23-7.1,2.49-7.39l16.25-1.29&#10;&#9;&#9;c1.54-0.12,2.9-1.08,3.53-2.49l7.04-15.69C123.99,0.92,128.73,0.92,130.23,4.25z" style="fill: none; stroke: rgb(216, 166, 203); stroke-width: 3.5; stroke-linejoin: round; stroke-miterlimit: 10;"/>
	<path class="st0" d="M310.23,4.25l7.04,15.69c0.63,1.41,1.99,2.37,3.53,2.49l16.25,1.29c3.72,0.3,5.27,4.91,2.49,7.39l-12.02,10.72&#10;&#9;&#9;c-1.26,1.12-1.73,2.89-1.2,4.49l5.45,16.57c1.19,3.62-2.62,6.85-5.99,5.08l-17.45-9.12c-1.23-0.64-2.7-0.64-3.93,0l-17.45,9.12&#10;&#9;&#9;c-3.37,1.76-7.18-1.47-5.99-5.08l5.45-16.57c0.53-1.6,0.05-3.37-1.2-4.49l-12.02-10.72c-2.78-2.49-1.23-7.1,2.49-7.39l16.25-1.29&#10;&#9;&#9;c1.54-0.12,2.9-1.08,3.53-2.49l7.04-15.69C303.99,0.92,308.73,0.92,310.23,4.25z" style="fill: none; stroke: rgb(216, 166, 203); stroke-width: 3.5; stroke-linejoin: round; stroke-miterlimit: 10;"/>
	<path class="st0" d="M220.23,4.25l7.04,15.69c0.63,1.41,1.99,2.37,3.53,2.49l16.25,1.29c3.72,0.3,5.27,4.91,2.49,7.39l-12.02,10.72&#10;&#9;&#9;c-1.26,1.12-1.73,2.89-1.2,4.49l5.45,16.57c1.19,3.62-2.62,6.85-5.99,5.08l-17.45-9.12c-1.23-0.64-2.7-0.64-3.93,0l-17.45,9.12&#10;&#9;&#9;c-3.37,1.76-7.18-1.47-5.99-5.08l5.45-16.57c0.53-1.6,0.05-3.37-1.2-4.49l-12.02-10.72c-2.78-2.49-1.23-7.1,2.49-7.39l16.25-1.29&#10;&#9;&#9;c1.54-0.12,2.9-1.08,3.53-2.49l7.04-15.69C213.99,0.92,218.73,0.92,220.23,4.25z" style="fill: none; stroke: rgb(216, 166, 203); stroke-width: 3.5; stroke-linejoin: round; stroke-miterlimit: 10;"/>
</g></g></g></g></svg>