<?xml version="1.0" encoding="utf-8"?>
<svg id="master-artboard" viewBox="0 0 1400 980" version="1.1" xmlns="http://www.w3.org/2000/svg" x="0px" y="0px" style="enable-background:new 0 0 336 235.2;" width="1400px" height="980px" xmlns:xlink="http://www.w3.org/1999/xlink"><linearGradient id="lg1"><stop offset=".322" stop-color="#a163f5"/><stop offset=".466" stop-color="#b074ee"/><stop offset=".752" stop-color="#d8a1dd"/><stop offset=".898" stop-color="#efbad3"/></linearGradient><linearGradient id="linear0" gradientUnits="userSpaceOnUse" x1="186.466029" x2="186.466029" y1="479.388144" y2="23.318144" xlink:href="#lg1"/><linearGradient id="linear1" gradientUnits="userSpaceOnUse" x1="117.864029" x2="117.864029" y1="479.388144" y2="23.318144" xlink:href="#lg1"/><linearGradient id="linear2" gradientUnits="userSpaceOnUse" x1="117.863029" x2="117.863029" y1="479.388144" y2="23.318144" xlink:href="#lg1"/><linearGradient id="gradient-1"><stop offset=".322" stop-color="#a163f5"/><stop offset=".466" stop-color="#b074ee"/><stop offset=".752" stop-color="#d8a1dd"/><stop offset=".898" stop-color="#efbad3"/></linearGradient><linearGradient id="gradient-2" gradientUnits="userSpaceOnUse" x1="185.517" x2="185.517" y1="480" y2="-.416" xlink:href="#gradient-1"/><linearGradient id="gradient-3" gradientUnits="userSpaceOnUse" x1="271.421" x2="271.421" y1="480" y2="-.416" xlink:href="#gradient-1"/><linearGradient id="gradient-4" gradientUnits="userSpaceOnUse" x1="281.568" x2="281.568" y1="480" y2="-.416" xlink:href="#gradient-1"/><linearGradient id="linear3" gradientUnits="userSpaceOnUse" x1="401.625" x2="401.625" y1="480" y2="-.416" xlink:href="#gradient-1"/><linearGradient id="linear5" gradientUnits="userSpaceOnUse" x1="90.375" x2="90.375" y1="480" y2="-.416" xlink:href="#gradient-1"/><linearGradient id="linear6" gradientUnits="userSpaceOnUse" x1="400.708" x2="400.708" y1="480" y2="-.416" xlink:href="#gradient-1"/><linearGradient id="linear7" gradientUnits="userSpaceOnUse" x1="423.545" x2="423.545" y1="480" y2="-.416" xlink:href="#gradient-1"/><linearGradient id="linear8" gradientUnits="userSpaceOnUse" x1="379.705" x2="379.705" y1="480" y2="-.416" xlink:href="#gradient-1"/><linearGradient id="linear10" gradientUnits="userSpaceOnUse" x1="36.626" x2="36.626" y1="480" y2="-.416" xlink:href="#gradient-1"/><linearGradient id="linear11" gradientUnits="userSpaceOnUse" x1="73.784" x2="73.784" y1="480" y2="-.416" xlink:href="#gradient-1"/><linearGradient id="linear12" gradientUnits="userSpaceOnUse" x1="110.941" x2="110.941" y1="480" y2="-.416" xlink:href="#gradient-1"/><linearGradient id="linear13" gradientUnits="userSpaceOnUse" x1="144.798" x2="144.798" y1="480" y2="-.416" xlink:href="#gradient-1"/><g><path d="m314.628906 321.023438c.445313-2.003907-.164062-4.09375-1.613281-5.542969l-43.515625-43.515625c12.78125-17.625 10.859375-41.921875-4.53125-57.316406-15.394531-15.394532-39.695312-17.316407-57.316406-4.53125l-43.519532-43.515626c-1.449218-1.453124-3.539062-2.0625-5.542968-1.617187-2 .445313-3.636719 1.878906-4.335938 3.808594l-35.824218 98.511719c-11.808594 32.328124-30.515626 61.699218-54.816407 86.074218-9.800781 9.824219-9.800781 25.726563 0 35.554688l27.070313 27.066406c9.824218 9.804688 25.730468 9.804688 35.554687 0 .164063-.164062.335938-.324219.5-.488281l55.976563 55.980469c2.34375 2.34375 6.144531 2.34375 8.484375 0 17.265625-17.304688 17.265625-45.320313 0-62.625l-24.941407-24.941407c14.476563-9.234375 29.917969-16.859375 46.050782-22.742187l98.511718-35.824219c1.925782-.699219 3.363282-2.335937 3.808594-4.335937zm-58.148437-97.890626c10.691406 10.71875 12.511719 27.421876 4.378906 40.195313l-44.574219-44.574219c12.773438-8.128906 29.476563-6.3125 40.195313 4.378906zm-157.3125 184.382813-27.066407-27.070313c-5.125-5.132812-5.125-13.449218 0-18.582031 4.675782-4.675781 9.160157-9.546875 13.449219-14.605469l46.808594 46.804688c-5.054687 4.292969-9.921875 8.777344-14.605469 13.453125-5.136718 5.125-13.449218 5.125-18.585937 0zm83.550781 9.839844c10.96875 10.972656 12.585938 28.195312 3.851562 41.019531l-51.101562-51.101562c6.574219-5.882813 13.472656-11.394532 20.660156-16.507813zm25.488281-67.449219c-23.886719 8.730469-46.300781 21.066406-66.453125 36.582031l-48.625-48.625c15.511719-20.15625 27.847656-42.566406 36.578125-66.457031l32.601563-89.660156 135.558594 135.554687zm0 0" fill="url(#linear0)" transform="matrix(1.9918699264526367, 0, 0, 1.9918699264526367, 209.9999237060547, -1.4210854715202004e-14)" style="fill: rgb(216, 166, 203);"/><path d="m305.539062 267.28125c3.074219 1.238281 6.570313-.25 7.808594-3.320312 9.765625-24.246094 4.109375-51.980469-14.375-70.464844-18.480468-18.480469-46.214844-24.136719-70.460937-14.371094-3.074219 1.238281-4.558594 4.734375-3.320313 7.808594 1.238282 3.074218 4.734375 4.5625 7.808594 3.324218 19.78125-7.972656 42.410156-3.355468 57.492188 11.726563 15.078124 15.078125 19.695312 37.707031 11.726562 57.492187-1.238281 3.070313.246094 6.566407 3.320312 7.804688zm0 0" fill="url(#linear1)" transform="matrix(1.9918699264526367, 0, 0, 1.9918699264526367, 209.9999237060547, -1.4210854715202004e-14)" style="fill: rgb(216, 166, 203);"/><path d="m221.84375 161.0625c31.3125-12.617188 67.136719-5.3125 91.007812 18.558594 23.871094 23.871094 31.175782 59.695312 18.558594 91.007812-1.238281 3.074219.25 6.570313 3.324219 7.808594s6.570313-.25 7.808594-3.324219c14.417969-35.773437 6.070312-76.703125-21.207031-103.980469-27.273438-27.273437-68.203126-35.621093-103.980469-21.203124-3.070313 1.238281-4.558594 4.734374-3.320313 7.808593 1.238282 3.074219 4.734375 4.5625 7.808594 3.324219zm0 0" fill="url(#linear2)" transform="matrix(1.9918699264526367, 0, 0, 1.9918699264526367, 209.9999237060547, -1.4210854715202004e-14)" style="fill: rgb(216, 166, 203);"/><path d="m401.625 0c-49.914062 0-90.375 40.460938-90.375 90.375s40.460938 90.375 90.375 90.375 90.375-40.460938 90.375-90.375c-.054688-49.890625-40.484375-90.3203125-90.375-90.375zm0 168.75c-43.285156 0-78.375-35.089844-78.375-78.375s35.089844-78.375 78.375-78.375 78.375 35.089844 78.375 78.375c-.050781 43.265625-35.109375 78.324219-78.375 78.375zm0 0" fill="url(#linear3)" transform="matrix(1.9918699264526367, 0, 0, 1.9918699264526367, 209.9999237060547, -1.4210854715202004e-14)" style="fill: rgb(216, 166, 203);"/><path d="m401.625 311.25c-49.914062 0-90.375 40.460938-90.375 90.375s40.460938 90.375 90.375 90.375 90.375-40.460938 90.375-90.375c-.054688-49.890625-40.484375-90.320312-90.375-90.375zm0 168.75c-43.285156 0-78.375-35.089844-78.375-78.375s35.089844-78.375 78.375-78.375 78.375 35.089844 78.375 78.375c-.050781 43.265625-35.109375 78.324219-78.375 78.375zm0 0" fill="url(#linear3)" transform="matrix(1.9918699264526367, 0, 0, 1.9918699264526367, 209.9999237060547, -1.4210854715202004e-14)" style="fill: rgb(216, 166, 203);"/><path d="m180.75 90.375c0-49.914062-40.460938-90.375-90.375-90.375s-90.375 40.460938-90.375 90.375 40.460938 90.375 90.375 90.375c49.890625-.054688 90.320312-40.484375 90.375-90.375zm-168.75 0c0-43.285156 35.089844-78.375 78.375-78.375s78.375 35.089844 78.375 78.375-35.089844 78.375-78.375 78.375c-43.265625-.050781-78.324219-35.109375-78.375-78.375zm0 0" fill="url(#linear5)" transform="matrix(1.9918699264526367, 0, 0, 1.9918699264526367, 209.9999237060547, -1.4210854715202004e-14)" style="fill: rgb(216, 166, 203);"/><path d="m440.363281 361.054688c-2.34375-2.34375-6.144531-2.34375-8.484375 0l-70.824218 70.824218c-2.34375 2.339844-2.34375 6.140625 0 8.484375 2.339843 2.34375 6.140624 2.34375 8.484374 0l70.824219-70.824219c2.34375-2.34375 2.34375-6.144531 0-8.484374zm0 0" fill="url(#linear6)" transform="matrix(1.9918699264526367, 0, 0, 1.9918699264526367, 209.9999237060547, -1.4210854715202004e-14)" style="fill: rgb(216, 166, 203);"/><path d="m427.789062 401.300781c-4.777343-.015625-9.359374 1.886719-12.730468 5.273438l-8.484375 8.484375c-7.027344 7.027344-7.027344 18.425781 0 25.453125 7.03125 7.03125 18.425781 7.03125 25.457031 0l8.484375-8.484375c5.148437-5.148438 6.6875-12.890625 3.902344-19.617188-2.789063-6.722656-9.351563-11.109375-16.628907-11.109375zm4.242188 22.242188-8.484375 8.484375c-2.34375 2.34375-6.144531 2.34375-8.488281 0-2.339844-2.339844-2.339844-6.140625 0-8.484375l8.488281-8.484375c1.507813-1.535156 3.730469-2.144532 5.8125-1.589844 2.082031.550781 3.710937 2.175781 4.261719 4.261719.554687 2.082031-.054688 4.300781-1.589844 5.8125zm0 0" fill="url(#linear7)" transform="matrix(1.9918699264526367, 0, 0, 1.9918699264526367, 209.9999237060547, -1.4210854715202004e-14)" style="fill: rgb(216, 166, 203);"/><path d="m362.734375 396.675781c7.03125 7.027344 18.425781 7.027344 25.457031 0l8.484375-8.484375c4.585938-4.539062 6.390625-11.1875 4.734375-17.425781-1.660156-6.234375-6.53125-11.105469-12.765625-12.765625-6.238281-1.660156-12.886719.148438-17.425781 4.734375l-8.484375 8.484375c-7.027344 7.03125-7.027344 18.425781 0 25.457031zm8.484375-16.972656 8.484375-8.484375c2.34375-2.34375 6.144531-2.34375 8.488281 0s2.34375 6.144531 0 8.484375l-8.488281 8.488281c-2.339844 2.339844-6.140625 2.339844-8.484375 0-2.339844-2.34375-2.339844-6.144531 0-8.488281zm0 0" fill="url(#linear8)" transform="matrix(1.9918699264526367, 0, 0, 1.9918699264526367, 209.9999237060547, -1.4210854715202004e-14)" style="fill: rgb(216, 166, 203);"/><path d="m450.050781 49.476562c0-3.3125-2.6875-6-6-6s-6 2.6875-6 6v8.921876l-32.894531-23.949219c-2.105469-1.53125-4.957031-1.53125-7.0625 0l-60 43.683593c-1.773438 1.246094-2.734375 3.351563-2.515625 5.507813.214844 2.15625 1.578125 4.027344 3.5625 4.894531 1.984375.871094 4.285156.601563 6.015625-.703125l8.042969-5.855469v59.472657c0 3.3125 2.6875 6 6 6h84.851562c3.3125 0 6-2.6875 6-6v-59.472657l8.042969 5.855469c1.730469 1.304688 4.03125 1.574219 6.015625.707031 1.984375-.871093 3.347656-2.742187 3.5625-4.898437.21875-2.15625-.742187-4.261719-2.515625-5.507813l-15.105469-11zm-12 85.972657h-72.851562v-62.207031l36.425781-26.519532 36.425781 26.519532zm0 0" fill="url(#linear3)" transform="matrix(1.9918699264526367, 0, 0, 1.9918699264526367, 209.9999237060547, -1.4210854715202004e-14)" style="fill: rgb(216, 166, 203);"/><path d="m31.90625 72.691406c0-2.042968 1.914062-3.957031 6.601562-3.957031 5.414063 0 6.667969 2.507813 9.042969 2.507813 2.898438 0 4.089844-3.632813 4.089844-5.414063 0-5.144531-9.632813-5.804687-13.132813-5.804687-8.25 0-16.894531 3.761718-16.894531 13.660156 0 15.441406 20.921875 14.054687 20.921875 22.042968 0 3.167969-3.367187 4.355469-6.402344 4.355469-6.136718 0-8.117187-4.886719-11.21875-4.886719-2.507812 0-4.484374 3.300782-4.484374 5.542969 0 4.359375 7.257812 8.582031 15.898437 8.582031 9.570313 0 16.5-5.148437 16.5-14.652343 0-16.628907-20.921875-15.375-20.921875-21.976563zm0 0" fill="url(#linear10)" transform="matrix(1.9918699264526367, 0, 0, 1.9918699264526367, 209.9999237060547, -1.4210854715202004e-14)" style="fill: rgb(216, 166, 203);"/><path d="m92.953125 104.4375c-.015625-.246094-.058594-.492188-.128906-.726562l-12.34375-40.257813c-.722657-2.308594-3.699219-3.429687-6.730469-3.429687s-6 1.121093-6.730469 3.429687l-12.277343 40.257813c-.066407.234374-.113282.480468-.128907.726562 0 2.441406 3.761719 4.222656 6.597657 4.222656 1.652343 0 2.972656-.527344 3.367187-1.914062l2.242187-8.25h13.925782l2.242187 8.25c.402344 1.386718 1.71875 1.914062 3.367188 1.914062 2.835937 0 6.597656-1.78125 6.597656-4.222656zm-24.019531-13.859375 4.816406-17.6875 4.816406 17.6875zm0 0" fill="url(#linear11)" transform="matrix(1.9918699264526367, 0, 0, 1.9918699264526367, 209.9999237060547, -1.4210854715202004e-14)" style="fill: rgb(216, 166, 203);"/><path d="m101.273438 108.660156h20.855468c1.976563 0 2.96875-2.246094 2.96875-4.488281s-.992187-4.488281-2.96875-4.488281h-15.046875v-36.164063c0-2.175781-2.574219-3.097656-5.148437-3.097656-2.574219 0-5.148438.921875-5.148438 3.097656v41.972657c0 2.109374 2.242188 3.167968 4.488282 3.167968zm0 0" fill="url(#linear12)" transform="matrix(1.9918699264526367, 0, 0, 1.9918699264526367, 209.9999237060547, -1.4210854715202004e-14)" style="fill: rgb(216, 166, 203);"/><path d="m133.742188 108.660156h23.496093c2.175781 0 3.101563-2.308594 3.101563-4.421875 0-2.441406-1.125-4.554687-3.101563-4.554687h-17.6875v-11.21875h9.902344c2.175781 0 3.097656-2.109375 3.097656-3.894532 0-2.109374-1.121093-4.023437-3.097656-4.023437h-9.902344v-11.152344h17.6875c1.980469 0 3.101563-2.113281 3.101563-4.554687 0-2.113282-.925782-4.421875-3.101563-4.421875h-23.496093c-2.242188 0-4.484376 1.054687-4.484376 3.167969v41.90625c0 2.109374 2.242188 3.167968 4.484376 3.167968zm0 0" fill="url(#linear13)" transform="matrix(1.9918699264526367, 0, 0, 1.9918699264526367, 209.9999237060547, -1.4210854715202004e-14)" style="fill: rgb(216, 166, 203);"/></g></svg>