<?xml version="1.0" encoding="utf-8"?>
<svg id="master-artboard" viewBox="0 0 1400 980" version="1.1" xmlns="http://www.w3.org/2000/svg" x="0px" y="0px" style="enable-background:new 0 0 336 235.2;" width="1400px" height="980px" xmlns:xlink="http://www.w3.org/1999/xlink"><linearGradient id="lg1"><stop offset=".322" stop-color="#a163f5"/><stop offset=".466" stop-color="#b074ee"/><stop offset=".752" stop-color="#d8a1dd"/><stop offset=".898" stop-color="#efbad3"/></linearGradient><linearGradient id="linear0" gradientUnits="userSpaceOnUse" x1="186.466029" x2="186.466029" y1="479.388144" y2="23.318144" xlink:href="#lg1"/><linearGradient id="linear1" gradientUnits="userSpaceOnUse" x1="117.864029" x2="117.864029" y1="479.388144" y2="23.318144" xlink:href="#lg1"/><linearGradient id="linear2" gradientUnits="userSpaceOnUse" x1="117.863029" x2="117.863029" y1="479.388144" y2="23.318144" xlink:href="#lg1"/><linearGradient id="gradient-1"><stop offset=".322" stop-color="#a163f5"/><stop offset=".466" stop-color="#b074ee"/><stop offset=".752" stop-color="#d8a1dd"/><stop offset=".898" stop-color="#efbad3"/></linearGradient><linearGradient id="gradient-2" gradientUnits="userSpaceOnUse" x1="185.517" x2="185.517" y1="480" y2="-.416" xlink:href="#gradient-1"/><linearGradient id="gradient-3" gradientUnits="userSpaceOnUse" x1="271.421" x2="271.421" y1="480" y2="-.416" xlink:href="#gradient-1"/><linearGradient id="gradient-4" gradientUnits="userSpaceOnUse" x1="281.568" x2="281.568" y1="480" y2="-.416" xlink:href="#gradient-1"/><linearGradient id="linear3" gradientUnits="userSpaceOnUse" x1="401.625" x2="401.625" y1="480" y2="-.416" xlink:href="#gradient-1"/><linearGradient id="linear5" gradientUnits="userSpaceOnUse" x1="90.375" x2="90.375" y1="480" y2="-.416" xlink:href="#gradient-1"/><linearGradient id="linear6" gradientUnits="userSpaceOnUse" x1="400.708" x2="400.708" y1="480" y2="-.416" xlink:href="#gradient-1"/><linearGradient id="linear7" gradientUnits="userSpaceOnUse" x1="423.545" x2="423.545" y1="480" y2="-.416" xlink:href="#gradient-1"/><linearGradient id="linear8" gradientUnits="userSpaceOnUse" x1="379.705" x2="379.705" y1="480" y2="-.416" xlink:href="#gradient-1"/><linearGradient id="linear10" gradientUnits="userSpaceOnUse" x1="36.626" x2="36.626" y1="480" y2="-.416" xlink:href="#gradient-1"/><linearGradient id="linear11" gradientUnits="userSpaceOnUse" x1="73.784" x2="73.784" y1="480" y2="-.416" xlink:href="#gradient-1"/><linearGradient id="linear12" gradientUnits="userSpaceOnUse" x1="110.941" x2="110.941" y1="480" y2="-.416" xlink:href="#gradient-1"/><linearGradient id="linear13" gradientUnits="userSpaceOnUse" x1="144.798" x2="144.798" y1="480" y2="-.416" xlink:href="#gradient-1"/><linearGradient id="gradient-5"><stop offset=".322" stop-color="#a163f5"/><stop offset=".466" stop-color="#b074ee"/><stop offset=".752" stop-color="#d8a1dd"/><stop offset=".898" stop-color="#efbad3"/></linearGradient><linearGradient id="gradient-6" gradientUnits="userSpaceOnUse" x1="186.466029" x2="186.466029" y1="479.388144" y2="23.318144" xlink:href="#gradient-5"/><linearGradient id="gradient-7" gradientUnits="userSpaceOnUse" x1="117.864029" x2="117.864029" y1="479.388144" y2="23.318144" xlink:href="#gradient-5"/><linearGradient id="gradient-8" gradientUnits="userSpaceOnUse" x1="117.863029" x2="117.863029" y1="479.388144" y2="23.318144" xlink:href="#gradient-5"/><g transform="matrix(2.0799185251940915, 0, 0, 2.0799185251940915, 251.77748747692516, 0)"><linearGradient id="gradient-9"><stop offset=".322" stop-color="#a163f5"/><stop offset=".466" stop-color="#b074ee"/><stop offset=".752" stop-color="#d8a1dd"/><stop offset=".898" stop-color="#efbad3"/></linearGradient><linearGradient id="gradient-10" gradientUnits="userSpaceOnUse" x1="157.08615" x2="157.08615" y1="487.594301" y2="17.530301" xlink:href="#gradient-9"/><linearGradient id="gradient-11" gradientUnits="userSpaceOnUse" x1="215.54015" x2="215.54015" y1="487.594301" y2="17.530301" xlink:href="#gradient-9"/><linearGradient id="gradient-12" gradientUnits="userSpaceOnUse" x1="307.08615" x2="307.08615" y1="487.594301" y2="17.530301" xlink:href="#gradient-9"/><path d="m222.65625 197.183594c-2.703125-2.765625-7.132812-2.820313-9.902344-.121094l-73 71.269531-38.339844-37.433593c-1.785156-1.785157-4.386718-2.472657-6.820312-1.800782-2.429688.671875-4.3125 2.601563-4.925781 5.046875-.609375 2.445313.140625 5.03125 1.964843 6.773438l43.230469 42.207031c2.722657 2.65625 7.0625 2.65625 9.78125 0l77.886719-76.042969c2.769531-2.699219 2.824219-7.132812.125-9.898437zm0 0" fill="url(#linear0)" style="fill: rgb(216, 166, 203);"/><path d="m428.523438 345.429688-32.0625-23.347657v-40.640625c0-3.3125-2.6875-6-6-6-3.316407 0-6 2.6875-6 6v31.902344l-70.375-51.230469v-189.609375c-.027344-23.945312-19.433594-43.351562-43.378907-43.378906h-71.453125c-6.636718-17.53125-23.425781-29.125-42.167968-29.125-18.742188 0-35.53125 11.59375-42.164063 29.125h-71.453125c-23.949219.027344-43.355469 19.433594-43.3828125 43.378906v305.582032c.0273435 23.945312 19.4335935 43.351562 43.3828125 43.378906h174.246094v43.707031c0 3.3125 2.683594 6 6 6h166.746094c3.3125 0 6-2.6875 6-6v-128.246094l25 18.199219c1.730468 1.304688 4.027343 1.574219 6.011718.703125 1.988282-.867187 3.347656-2.738281 3.566406-4.894531s-.746093-4.261719-2.519531-5.507813zm-308.367188-302.304688c3.285156 0 6.132812-2.289062 6.835938-5.5 3.007812-13.6875 15.664062-23.625 30.09375-23.625 14.429687 0 27.085937 9.9375 30.09375 23.625.703124 3.210938 3.550781 5.5 6.835937 5.5h24.988281v13.128906c-.019531 16.21875-13.164062 29.363282-29.382812 29.382813h-65.070313c-16.21875-.019531-29.363281-13.164063-29.382812-29.382813v-13.128906zm-76.6875 364.339844c-16.21875-.015625-29.363281-13.160156-29.382812-29.378906v-305.582032c.019531-16.21875 13.164062-29.359375 29.382812-29.378906h37.699219v13.128906c.027343 23.949219 19.433593 43.355469 43.378906 43.382813h65.074219c23.945312-.027344 43.351562-19.433594 43.378906-43.382813v-13.128906h37.699219c16.222656.015625 29.367187 13.160156 29.386719 29.378906v189.609375l-114.4375 83.316407c-1.773438 1.246093-2.734376 3.351562-2.519532 5.507812.21875 2.15625 1.578125 4.027344 3.566406 4.894531 1.984376.871094 4.28125.601563 6.015626-.703125l25-18.199218v70.539062zm340.992188 51.707031h-154.746094v-130.976563l75.738281-55.144531c1.074219.265625 2.195313.265625 3.265625 0l75.742188 55.144531zm0 0" fill="url(#linear1)" style="fill: rgb(216, 166, 203);"/><path d="m307.085938 327.359375c-3.3125 0-6 2.6875-6 6v5.695313c-12.824219 3.050781-21.335938 15.21875-19.804688 28.316406 1.53125 13.09375 12.621094 22.96875 25.804688 22.976562 7.613281.132813 13.726562 6.320313 13.761718 13.933594.035156 7.609375-6.015625 13.859375-13.625 14.0625-.046875 0-.089844-.007812-.136718-.007812-.046876 0-.089844.003906-.136719.007812-7.671875-.082031-13.851563-6.320312-13.863281-13.996094 0-3.3125-2.6875-6-6-6s-6 2.6875-6 6c.015624 12.042969 8.289062 22.5 20 25.292969v6.609375c0 3.3125 2.6875 6 6 6s6-2.6875 6-6v-6.609375c12.824218-3.050781 21.332031-15.21875 19.800781-28.3125s-12.617188-22.96875-25.800781-22.980469c-7.730469 0-14-6.265625-14-14 0-7.730468 6.269531-14 14-14 7.730468 0 14 6.269532 14 14 0 3.316406 2.6875 6 6 6s6-2.683594 6-6c-.015626-12.039062-8.285157-22.5-20-25.292968v-5.695313c0-3.3125-2.6875-6-6-6zm0 0" fill="url(#linear2)" style="fill: rgb(216, 166, 203);"/></g></svg>