<?xml version="1.0" encoding="utf-8"?>
<svg id="master-artboard" viewBox="0 0 1400 980" version="1.1" xmlns="http://www.w3.org/2000/svg" x="0px" y="0px" style="enable-background:new 0 0 336 235.2;" width="1400px" height="980px"><g><g transform="matrix(5.5641350746154785, 0, 0, 5.5641350746154785, 209.9999237060547, 0)"><path style="fill: rgb(216, 166, 203);" d="M144.414,176.128c-5.669,0-10.281-4.612-10.281-10.281s4.612-10.28,10.281-10.28&#10;&#9;s10.28,4.611,10.28,10.28S150.083,176.128,144.414,176.128z M144.414,160.566c-2.912,0-5.281,2.369-5.281,5.28&#10;&#9;c0,2.912,2.369,5.281,5.281,5.281c2.911,0,5.28-2.369,5.28-5.281C149.694,162.936,147.325,160.566,144.414,160.566z M64.939,176.128&#10;&#9;c-5.669,0-10.28-4.612-10.28-10.281s4.611-10.28,10.28-10.28s10.281,4.611,10.281,10.28S70.608,176.128,64.939,176.128z&#10;&#9; M64.939,160.566c-2.911,0-5.28,2.369-5.28,5.28c0,2.912,2.369,5.281,5.28,5.281c2.912,0,5.281-2.369,5.281-5.281&#10;&#9;C70.22,162.936,67.851,160.566,64.939,160.566z M150.709,151.589H58.138c-1.181,0-2.2-0.826-2.445-1.981l-5.578-26.295L25.056,21.51&#10;&#9;H7.064c-1.381,0-2.5-1.119-2.5-2.5s1.119-2.5,2.5-2.5h19.951c1.15,0,2.152,0.785,2.428,1.902l8.962,36.408H70.9V38.368h-7.076&#10;&#9;c-1.056,0-1.997-0.663-2.354-1.656s-0.05-2.104,0.765-2.774L102.75,0.599c0.172-0.146,0.359-0.267,0.557-0.36&#10;&#9;C103.645,0.079,104.009,0,104.373,0h0.001h0.001c0.361,0,0.724,0.077,1.06,0.235c0.201,0.094,0.391,0.215,0.563,0.363l40.515,33.339&#10;&#9;c0.814,0.671,1.121,1.781,0.765,2.774s-1.298,1.656-2.354,1.656h-7.076V54.82h31.217c0.742,0,1.445,0.329,1.92,0.899&#10;&#9;c0.476,0.569,0.673,1.321,0.539,2.051l-2.236,12.228c-0.006,0.036-0.013,0.071-0.02,0.106l-9.715,53.1&#10;&#9;c-0.217,1.188-1.252,2.05-2.459,2.05H55.638l4.525,21.335h90.546c1.381,0,2.5,1.119,2.5,2.5S152.09,151.589,150.709,151.589z&#10;&#9; M54.511,120.254h100.498l8.81-48.155H52.552c-1.381,0-2.5-1.119-2.5-2.5s1.119-2.5,2.5-2.5h112.182l1.331-7.278H39.635&#10;&#9;L54.511,120.254z M118.897,54.82h13.95V35.868c0-1.381,1.119-2.5,2.5-2.5h2.604L104.374,5.737L70.796,33.368H73.4&#10;&#9;c1.381,0,2.5,1.119,2.5,2.5V54.82h14.997V41.795c0-1.381,1.119-2.5,2.5-2.5h23c1.381,0,2.5,1.119,2.5,2.5V54.82z M95.897,54.82h18&#10;&#9;V44.295h-18V54.82z"/><g>
</g><g>
</g><g>
</g><g>
</g><g>
</g><g>
</g><g>
</g><g>
</g><g>
</g><g>
</g><g>
</g><g>
</g><g>
</g><g>
</g><g>
</g></g></g></svg>